<svg xmlns="http://www.w3.org/2000/svg" fill="none" viewBox="-0.625 -0.625 30 30" id="Apple-Logo--Streamline-Logos" height="30" width="30">
  <desc>
    Apple Logo Streamline Icon: https://streamlinehq.com
  </desc>
  <path stroke="#000000" stroke-linejoin="round" d="M10.182291666666668 8.385416666666668c1.916666666666667 0 3.0391145833333333 1.1979166666666667 4.192708333333334 1.1979166666666667 1.15359375 0 2.875 -1.1979166666666667 4.791666666666667 -1.1979166666666667 1.3596354166666667 0 3.1050000000000004 0.7714583333333334 4.3604166666666675 2.315572916666667 -0.6947916666666667 0.4576041666666667 -2.0867708333333335 1.825625 -2.0867708333333335 4.8719270833333335 0 2.3598958333333333 1.9849479166666668 4.220260416666667 2.978020833333334 4.579635416666667 -1.0793229166666667 3.5769791666666673 -3.186458333333334 6.800572916666667 -5.251666666666668 6.800572916666667 -1.796875 0 -2.994791666666667 -1.1979166666666667 -4.791666666666667 -1.1979166666666667s-2.3958333333333335 1.1979166666666667 -4.192708333333334 1.1979166666666667c-2.952864583333333 0 -5.989583333333334 -6.588541666666667 -5.989583333333334 -11.380208333333334s3.59375 -7.1875 5.989583333333334 -7.1875Z" stroke-width="1.25"></path>
  <path stroke="#000000" stroke-linejoin="round" d="M14.375 7.1875c0 -3.59375 1.796875 -5.390625 5.390625 -5.390625C19.765625 5.390625 17.96875 7.1875 14.375 7.1875Z" stroke-width="1.25"></path>
</svg>